<svg width="162" height="56" viewBox="0 0 162 56" fill="none" xmlns="http://www.w3.org/2000/svg">
<rect x="0.5" y="0.5" width="161" height="55" rx="7.5" fill="#09090B"/>
<rect x="0.5" y="0.5" width="161" height="55" rx="7.5" stroke="#A1A1AA"/>
<path d="M36.9829 42.7161C35.2409 44.4048 33.3389 44.1382 31.5081 43.3383C29.5705 42.5206 27.793 42.485 25.7488 43.3383C23.1891 44.4403 21.8382 44.1204 20.3095 42.7161C11.635 33.775 12.9148 20.159 22.7625 19.6613C25.1622 19.7857 26.8331 20.9766 28.2374 21.0833C30.3349 20.6567 32.3435 19.4302 34.5832 19.5902C37.2673 19.8035 39.2937 20.87 40.6269 22.7897C35.0809 26.1138 36.3963 33.4195 41.4801 35.4637C40.4669 38.13 39.1515 40.7786 36.9651 42.7339L36.9829 42.7161ZM28.0596 19.5546C27.793 15.5907 31.0103 12.32 34.7077 12C35.2231 16.5861 30.5482 19.999 28.0596 19.5546Z" fill="#F4F4F5"/>
<path d="M52.7585 21V12.2727H56.2528C56.8949 12.2727 57.4304 12.3679 57.8594 12.5582C58.2884 12.7486 58.6108 13.0128 58.8267 13.3509C59.0426 13.6861 59.1506 14.0724 59.1506 14.5099C59.1506 14.8509 59.0824 15.1506 58.946 15.4091C58.8097 15.6648 58.6222 15.875 58.3835 16.0398C58.1477 16.2017 57.8778 16.3168 57.5739 16.3849V16.4702C57.9063 16.4844 58.2173 16.5781 58.5071 16.7514C58.7997 16.9247 59.0369 17.1676 59.2188 17.4801C59.4006 17.7898 59.4915 18.1591 59.4915 18.5881C59.4915 19.0511 59.3764 19.4645 59.1463 19.8281C58.919 20.1889 58.5824 20.4744 58.1364 20.6847C57.6903 20.8949 57.1406 21 56.4872 21H52.7585ZM54.6037 19.4915H56.108C56.6222 19.4915 56.9972 19.3935 57.233 19.1974C57.4688 18.9986 57.5866 18.7344 57.5866 18.4048C57.5866 18.1634 57.5284 17.9503 57.4119 17.7656C57.2955 17.581 57.1293 17.4361 56.9134 17.331C56.7003 17.2259 56.446 17.1733 56.1506 17.1733H54.6037V19.4915ZM54.6037 15.9247H55.9716C56.2244 15.9247 56.4489 15.8807 56.6449 15.7926C56.8438 15.7017 57 15.5739 57.1136 15.4091C57.2301 15.2443 57.2884 15.0469 57.2884 14.8168C57.2884 14.5014 57.1761 14.2472 56.9517 14.054C56.7301 13.8608 56.4148 13.7642 56.0057 13.7642H54.6037V15.9247ZM62.5245 21.1236C62.1069 21.1236 61.7347 21.0511 61.408 20.9062C61.0813 20.7585 60.8228 20.5412 60.6325 20.2543C60.445 19.9645 60.3512 19.6037 60.3512 19.1719C60.3512 18.8082 60.418 18.5028 60.5515 18.2557C60.685 18.0085 60.8668 17.8097 61.0969 17.6591C61.3271 17.5085 61.5884 17.3949 61.881 17.3182C62.1765 17.2415 62.4862 17.1875 62.81 17.1562C63.1907 17.1165 63.4975 17.0795 63.7305 17.0455C63.9634 17.0085 64.1325 16.9545 64.2376 16.8835C64.3427 16.8125 64.3952 16.7074 64.3952 16.5682V16.5426C64.3952 16.2727 64.31 16.0639 64.1396 15.9162C63.9719 15.7685 63.7333 15.6946 63.4237 15.6946C63.0969 15.6946 62.837 15.767 62.6438 15.9119C62.4506 16.054 62.3228 16.233 62.2603 16.4489L60.5813 16.3125C60.6665 15.9148 60.8342 15.571 61.0842 15.2812C61.3342 14.9886 61.6566 14.7642 62.0515 14.608C62.4492 14.4489 62.9094 14.3693 63.4322 14.3693C63.7958 14.3693 64.1438 14.4119 64.4762 14.4972C64.8114 14.5824 65.1083 14.7145 65.3668 14.8935C65.6282 15.0724 65.8342 15.3026 65.9847 15.5838C66.1353 15.8622 66.2106 16.196 66.2106 16.5852V21H64.489V20.0923H64.4379C64.3327 20.2969 64.1921 20.4773 64.016 20.6335C63.8398 20.7869 63.6282 20.9077 63.381 20.9957C63.1339 21.081 62.8484 21.1236 62.5245 21.1236ZM63.0444 19.8707C63.3114 19.8707 63.5472 19.8182 63.7518 19.7131C63.9563 19.6051 64.1168 19.4602 64.2333 19.2784C64.3498 19.0966 64.408 18.8906 64.408 18.6605V17.9659C64.3512 18.0028 64.2731 18.0369 64.1737 18.0682C64.0771 18.0966 63.9677 18.1236 63.8455 18.1491C63.7234 18.1719 63.6012 18.1932 63.479 18.2131C63.3569 18.2301 63.2461 18.2457 63.1467 18.2599C62.9336 18.2912 62.7475 18.3409 62.5884 18.4091C62.4293 18.4773 62.3058 18.5696 62.2177 18.6861C62.1296 18.7997 62.0856 18.9418 62.0856 19.1122C62.0856 19.3594 62.1751 19.5483 62.354 19.679C62.5359 19.8068 62.766 19.8707 63.0444 19.8707ZM67.619 21V14.4545H69.4343V21H67.619ZM68.5309 13.6108C68.261 13.6108 68.0295 13.5213 67.8363 13.3423C67.646 13.1605 67.5508 12.9432 67.5508 12.6903C67.5508 12.4403 67.646 12.2259 67.8363 12.0469C68.0295 11.8651 68.261 11.7741 68.5309 11.7741C68.8008 11.7741 69.0309 11.8651 69.2212 12.0469C69.4144 12.2259 69.511 12.4403 69.511 12.6903C69.511 12.9432 69.4144 13.1605 69.2212 13.3423C69.0309 13.5213 68.8008 13.6108 68.5309 13.6108ZM72.4055 14.4545L73.6072 16.7429L74.8388 14.4545H76.701L74.8047 17.7273L76.7521 21H74.8984L73.6072 18.7372L72.3374 21H70.4624L72.4055 17.7273L70.5305 14.4545H72.4055ZM79.6104 21.1236C79.1928 21.1236 78.8207 21.0511 78.494 20.9062C78.1673 20.7585 77.9087 20.5412 77.7184 20.2543C77.5309 19.9645 77.4371 19.6037 77.4371 19.1719C77.4371 18.8082 77.5039 18.5028 77.6374 18.2557C77.771 18.0085 77.9528 17.8097 78.1829 17.6591C78.413 17.5085 78.6744 17.3949 78.967 17.3182C79.2624 17.2415 79.5721 17.1875 79.896 17.1562C80.2766 17.1165 80.5835 17.0795 80.8164 17.0455C81.0494 17.0085 81.2184 16.9545 81.3235 16.8835C81.4286 16.8125 81.4812 16.7074 81.4812 16.5682V16.5426C81.4812 16.2727 81.396 16.0639 81.2255 15.9162C81.0579 15.7685 80.8192 15.6946 80.5096 15.6946C80.1829 15.6946 79.9229 15.767 79.7298 15.9119C79.5366 16.054 79.4087 16.233 79.3462 16.4489L77.6673 16.3125C77.7525 15.9148 77.9201 15.571 78.1701 15.2812C78.4201 14.9886 78.7425 14.7642 79.1374 14.608C79.5352 14.4489 79.9954 14.3693 80.5181 14.3693C80.8817 14.3693 81.2298 14.4119 81.5621 14.4972C81.8974 14.5824 82.1942 14.7145 82.4528 14.8935C82.7141 15.0724 82.9201 15.3026 83.0707 15.5838C83.2212 15.8622 83.2965 16.196 83.2965 16.5852V21H81.5749V20.0923H81.5238C81.4187 20.2969 81.2781 20.4773 81.1019 20.6335C80.9258 20.7869 80.7141 20.9077 80.467 20.9957C80.2198 21.081 79.9343 21.1236 79.6104 21.1236ZM80.1303 19.8707C80.3974 19.8707 80.6332 19.8182 80.8377 19.7131C81.0423 19.6051 81.2028 19.4602 81.3192 19.2784C81.4357 19.0966 81.494 18.8906 81.494 18.6605V17.9659C81.4371 18.0028 81.359 18.0369 81.2596 18.0682C81.163 18.0966 81.0536 18.1236 80.9315 18.1491C80.8093 18.1719 80.6871 18.1932 80.565 18.2131C80.4428 18.2301 80.332 18.2457 80.2326 18.2599C80.0195 18.2912 79.8335 18.3409 79.6744 18.4091C79.5153 18.4773 79.3917 18.5696 79.3036 18.6861C79.2156 18.7997 79.1715 18.9418 79.1715 19.1122C79.1715 19.3594 79.261 19.5483 79.44 19.679C79.6218 19.8068 79.8519 19.8707 80.1303 19.8707ZM84.7049 21V14.4545H86.4648V15.5966H86.533C86.6523 15.1903 86.8526 14.8835 87.1339 14.6761C87.4151 14.4659 87.739 14.3608 88.1055 14.3608C88.1964 14.3608 88.2944 14.3665 88.3995 14.3778C88.5046 14.3892 88.5969 14.4048 88.6765 14.4247V16.0355C88.5913 16.0099 88.4734 15.9872 88.3228 15.9673C88.1722 15.9474 88.0344 15.9375 87.9094 15.9375C87.6424 15.9375 87.4038 15.9957 87.1935 16.1122C86.9862 16.2259 86.8214 16.3849 86.6992 16.5895C86.5799 16.794 86.5202 17.0298 86.5202 17.2969V21H84.7049ZM94.2077 17.2159V21H92.3924V14.4545H94.1225V15.6094H94.1992C94.3441 15.2287 94.587 14.9276 94.9279 14.706C95.2688 14.4815 95.6822 14.3693 96.168 14.3693C96.6225 14.3693 97.0188 14.4688 97.3569 14.6676C97.695 14.8665 97.9577 15.1506 98.1452 15.5199C98.3327 15.8864 98.4265 16.3239 98.4265 16.8324V21H96.6112V17.1562C96.614 16.7557 96.5117 16.4432 96.3043 16.2188C96.0969 15.9915 95.8114 15.8778 95.4478 15.8778C95.2035 15.8778 94.9876 15.9304 94.8001 16.0355C94.6154 16.1406 94.4705 16.294 94.3654 16.4957C94.2631 16.6946 94.2106 16.9347 94.2077 17.2159ZM101.724 21.1236C101.306 21.1236 100.934 21.0511 100.607 20.9062C100.281 20.7585 100.022 20.5412 99.8317 20.2543C99.6442 19.9645 99.5504 19.6037 99.5504 19.1719C99.5504 18.8082 99.6172 18.5028 99.7507 18.2557C99.8842 18.0085 100.066 17.8097 100.296 17.6591C100.526 17.5085 100.788 17.3949 101.08 17.3182C101.376 17.2415 101.685 17.1875 102.009 17.1562C102.39 17.1165 102.697 17.0795 102.93 17.0455C103.163 17.0085 103.332 16.9545 103.437 16.8835C103.542 16.8125 103.594 16.7074 103.594 16.5682V16.5426C103.594 16.2727 103.509 16.0639 103.339 15.9162C103.171 15.7685 102.933 15.6946 102.623 15.6946C102.296 15.6946 102.036 15.767 101.843 15.9119C101.65 16.054 101.522 16.233 101.46 16.4489L99.7805 16.3125C99.8658 15.9148 100.033 15.571 100.283 15.2812C100.533 14.9886 100.856 14.7642 101.251 14.608C101.648 14.4489 102.109 14.3693 102.631 14.3693C102.995 14.3693 103.343 14.4119 103.675 14.4972C104.011 14.5824 104.308 14.7145 104.566 14.8935C104.827 15.0724 105.033 15.3026 105.184 15.5838C105.335 15.8622 105.41 16.196 105.41 16.5852V21H103.688V20.0923H103.637C103.532 20.2969 103.391 20.4773 103.215 20.6335C103.039 20.7869 102.827 20.9077 102.58 20.9957C102.333 21.081 102.048 21.1236 101.724 21.1236ZM102.244 19.8707C102.511 19.8707 102.746 19.8182 102.951 19.7131C103.156 19.6051 103.316 19.4602 103.433 19.2784C103.549 19.0966 103.607 18.8906 103.607 18.6605V17.9659C103.55 18.0028 103.472 18.0369 103.373 18.0682C103.276 18.0966 103.167 18.1236 103.045 18.1491C102.923 18.1719 102.8 18.1932 102.678 18.2131C102.556 18.2301 102.445 18.2457 102.346 18.2599C102.133 18.2912 101.947 18.3409 101.788 18.4091C101.629 18.4773 101.505 18.5696 101.417 18.6861C101.329 18.7997 101.285 18.9418 101.285 19.1122C101.285 19.3594 101.374 19.5483 101.553 19.679C101.735 19.8068 101.965 19.8707 102.244 19.8707Z" fill="#A1A1AA"/>
<path d="M55.7713 42H52.4759L57.4972 27.4545H61.4602L66.4744 42H63.179L59.5355 30.7784H59.4219L55.7713 42ZM55.5653 36.2827H63.3494V38.6832H55.5653V36.2827ZM68.1683 46.0909V31.0909H71.1513V32.9233H71.2862C71.4188 32.6297 71.6106 32.3314 71.8615 32.0284C72.1172 31.7206 72.4486 31.465 72.8558 31.2614C73.2678 31.053 73.7791 30.9489 74.3899 30.9489C75.1854 30.9489 75.9193 31.1572 76.5916 31.5739C77.264 31.9858 77.8014 32.6084 78.2038 33.4418C78.6063 34.2704 78.8075 35.3097 78.8075 36.5597C78.8075 37.7765 78.611 38.804 78.218 39.642C77.8298 40.4754 77.2995 41.1075 76.6271 41.5384C75.9595 41.9645 75.2114 42.1776 74.3828 42.1776C73.7957 42.1776 73.2962 42.0805 72.8842 41.8864C72.477 41.6922 72.1432 41.4484 71.8828 41.1548C71.6224 40.8565 71.4235 40.5559 71.2862 40.2528H71.1939V46.0909H68.1683ZM71.13 36.5455C71.13 37.1941 71.2199 37.7599 71.3999 38.2429C71.5798 38.7259 71.8402 39.1023 72.1811 39.3722C72.522 39.6373 72.9363 39.7699 73.424 39.7699C73.9164 39.7699 74.3331 39.6349 74.674 39.3651C75.0149 39.0904 75.273 38.7116 75.4482 38.2287C75.6281 37.741 75.718 37.1799 75.718 36.5455C75.718 35.9157 75.6304 35.3617 75.4553 34.8835C75.2801 34.4053 75.022 34.0312 74.6811 33.7614C74.3402 33.4915 73.9212 33.3565 73.424 33.3565C72.9316 33.3565 72.5149 33.4867 72.174 33.7472C71.8378 34.0076 71.5798 34.3769 71.3999 34.8551C71.2199 35.3333 71.13 35.8968 71.13 36.5455ZM80.8246 46.0909V31.0909H83.8075V32.9233H83.9425C84.075 32.6297 84.2668 32.3314 84.5178 32.0284C84.7734 31.7206 85.1049 31.465 85.5121 31.2614C85.924 31.053 86.4354 30.9489 87.0462 30.9489C87.8416 30.9489 88.5755 31.1572 89.2479 31.5739C89.9202 31.9858 90.4576 32.6084 90.8601 33.4418C91.2625 34.2704 91.4638 35.3097 91.4638 36.5597C91.4638 37.7765 91.2673 38.804 90.8743 39.642C90.486 40.4754 89.9557 41.1075 89.2834 41.5384C88.6158 41.9645 87.8677 42.1776 87.0391 42.1776C86.4519 42.1776 85.9524 42.0805 85.5405 41.8864C85.1333 41.6922 84.7995 41.4484 84.5391 41.1548C84.2786 40.8565 84.0798 40.5559 83.9425 40.2528H83.8501V46.0909H80.8246ZM83.7862 36.5455C83.7862 37.1941 83.8762 37.7599 84.0561 38.2429C84.236 38.7259 84.4964 39.1023 84.8374 39.3722C85.1783 39.6373 85.5926 39.7699 86.0803 39.7699C86.5727 39.7699 86.9893 39.6349 87.3303 39.3651C87.6712 39.0904 87.9292 38.7116 88.1044 38.2287C88.2843 37.741 88.3743 37.1799 88.3743 36.5455C88.3743 35.9157 88.2867 35.3617 88.1115 34.8835C87.9363 34.4053 87.6783 34.0312 87.3374 33.7614C86.9964 33.4915 86.5774 33.3565 86.0803 33.3565C85.5878 33.3565 85.1712 33.4867 84.8303 33.7472C84.4941 34.0076 84.236 34.3769 84.0561 34.8551C83.8762 35.3333 83.7862 35.8968 83.7862 36.5455ZM106.057 31.6378C106 31.0649 105.757 30.6198 105.326 30.3026C104.895 29.9853 104.31 29.8267 103.571 29.8267C103.069 29.8267 102.646 29.8977 102.3 30.0398C101.954 30.1771 101.689 30.3688 101.505 30.6151C101.325 30.8613 101.235 31.1406 101.235 31.4531C101.225 31.7135 101.28 31.9408 101.398 32.1349C101.521 32.3291 101.689 32.4972 101.902 32.6392C102.115 32.7765 102.362 32.8973 102.641 33.0014C102.92 33.1009 103.219 33.1861 103.536 33.2571L104.843 33.5696C105.477 33.7116 106.06 33.901 106.59 34.1378C107.12 34.3745 107.579 34.6657 107.968 35.0114C108.356 35.357 108.657 35.7642 108.87 36.233C109.087 36.7017 109.199 37.2391 109.203 37.8452C109.199 38.7353 108.971 39.5071 108.522 40.1605C108.077 40.8092 107.433 41.3134 106.59 41.6733C105.752 42.0284 104.741 42.206 103.557 42.206C102.383 42.206 101.36 42.026 100.489 41.6662C99.6225 41.3063 98.9454 40.7737 98.4577 40.0682C97.9748 39.358 97.7215 38.4796 97.6978 37.4332H100.674C100.707 37.9209 100.846 38.3281 101.093 38.6548C101.344 38.9768 101.677 39.2206 102.094 39.3864C102.516 39.5473 102.991 39.6278 103.522 39.6278C104.042 39.6278 104.495 39.5521 104.878 39.4006C105.266 39.2491 105.567 39.0384 105.78 38.7685C105.993 38.4986 106.1 38.1884 106.1 37.8381C106.1 37.5114 106.003 37.2367 105.809 37.0142C105.619 36.7917 105.34 36.6023 104.971 36.446C104.606 36.2898 104.158 36.1477 103.628 36.0199L102.044 35.6222C100.818 35.3239 99.8498 34.8575 99.1396 34.223C98.4293 33.5885 98.0766 32.7339 98.0813 31.6591C98.0766 30.7784 98.311 30.009 98.7844 29.3509C99.2627 28.6927 99.9184 28.179 100.752 27.8097C101.585 27.4403 102.532 27.2557 103.593 27.2557C104.672 27.2557 105.614 27.4403 106.419 27.8097C107.229 28.179 107.859 28.6927 108.309 29.3509C108.758 30.009 108.99 30.7713 109.005 31.6378H106.057ZM117.018 31.0909V33.3636H110.448V31.0909H117.018ZM111.94 28.4773H114.965V38.6477C114.965 38.9271 115.008 39.1449 115.093 39.3011C115.178 39.4527 115.297 39.5592 115.448 39.6207C115.604 39.6823 115.784 39.7131 115.988 39.7131C116.13 39.7131 116.272 39.7012 116.414 39.6776C116.556 39.6491 116.665 39.6278 116.741 39.6136L117.217 41.8651C117.065 41.9124 116.852 41.9669 116.577 42.0284C116.303 42.0947 115.969 42.1349 115.576 42.1491C114.847 42.1776 114.208 42.0805 113.658 41.858C113.114 41.6354 112.69 41.2898 112.387 40.821C112.084 40.3523 111.935 39.7604 111.94 39.0455V28.4773ZM123.8 42.2131C122.697 42.2131 121.743 41.9787 120.938 41.5099C120.138 41.0365 119.52 40.3783 119.085 39.5355C118.649 38.688 118.431 37.7055 118.431 36.5881C118.431 35.4612 118.649 34.4763 119.085 33.6335C119.52 32.786 120.138 32.1278 120.938 31.6591C121.743 31.1856 122.697 30.9489 123.8 30.9489C124.904 30.9489 125.855 31.1856 126.656 31.6591C127.46 32.1278 128.081 32.786 128.516 33.6335C128.952 34.4763 129.17 35.4612 129.17 36.5881C129.17 37.7055 128.952 38.688 128.516 39.5355C128.081 40.3783 127.46 41.0365 126.656 41.5099C125.855 41.9787 124.904 42.2131 123.8 42.2131ZM123.815 39.8693C124.317 39.8693 124.736 39.7273 125.072 39.4432C125.408 39.1544 125.661 38.7614 125.832 38.2642C126.007 37.767 126.094 37.2012 126.094 36.5668C126.094 35.9323 126.007 35.3665 125.832 34.8693C125.661 34.3722 125.408 33.9792 125.072 33.6903C124.736 33.4015 124.317 33.2571 123.815 33.2571C123.308 33.2571 122.882 33.4015 122.536 33.6903C122.195 33.9792 121.937 34.3722 121.762 34.8693C121.592 35.3665 121.506 35.9323 121.506 36.5668C121.506 37.2012 121.592 37.767 121.762 38.2642C121.937 38.7614 122.195 39.1544 122.536 39.4432C122.882 39.7273 123.308 39.8693 123.815 39.8693ZM131.137 42V31.0909H134.07V32.9943H134.184C134.383 32.3172 134.717 31.8059 135.185 31.4602C135.654 31.1098 136.194 30.9347 136.805 30.9347C136.956 30.9347 137.12 30.9441 137.295 30.9631C137.47 30.982 137.624 31.008 137.756 31.0412V33.7259C137.614 33.6832 137.418 33.6454 137.167 33.6122C136.916 33.5791 136.686 33.5625 136.478 33.5625C136.033 33.5625 135.635 33.6596 135.285 33.8537C134.939 34.0431 134.665 34.3082 134.461 34.6491C134.262 34.9901 134.163 35.383 134.163 35.8281V42H131.137ZM143.784 42.2131C142.662 42.2131 141.696 41.9858 140.887 41.5312C140.082 41.072 139.462 40.4233 139.026 39.5852C138.59 38.7424 138.373 37.7457 138.373 36.5952C138.373 35.473 138.59 34.4882 139.026 33.6406C139.462 32.7931 140.075 32.1326 140.865 31.6591C141.661 31.1856 142.594 30.9489 143.664 30.9489C144.383 30.9489 145.053 31.0649 145.674 31.2969C146.299 31.5241 146.843 31.8674 147.307 32.3267C147.776 32.786 148.141 33.3636 148.401 34.0597C148.661 34.7509 148.792 35.5606 148.792 36.4886V37.3196H139.58V35.4446H145.944C145.944 35.009 145.849 34.6231 145.659 34.2869C145.47 33.9508 145.207 33.688 144.871 33.4986C144.54 33.3045 144.154 33.2074 143.713 33.2074C143.254 33.2074 142.847 33.3139 142.492 33.527C142.141 33.7353 141.867 34.017 141.668 34.3722C141.469 34.7225 141.367 35.1132 141.363 35.544V37.3267C141.363 37.8665 141.462 38.3329 141.661 38.7259C141.864 39.1188 142.151 39.4219 142.52 39.6349C142.89 39.848 143.328 39.9545 143.834 39.9545C144.17 39.9545 144.478 39.9072 144.757 39.8125C145.037 39.7178 145.276 39.5758 145.475 39.3864C145.674 39.197 145.825 38.965 145.929 38.6903L148.728 38.875C148.586 39.5473 148.294 40.1345 147.854 40.6364C147.418 41.1335 146.855 41.5218 146.164 41.8011C145.477 42.0758 144.684 42.2131 143.784 42.2131Z" fill="#F4F4F5"/>
</svg>
