<svg width="180" height="56" viewBox="0 0 180 56" fill="none" xmlns="http://www.w3.org/2000/svg">
<rect x="0.5" y="0.5" width="179" height="55" rx="7.5" fill="#09090B"/>
<rect x="0.5" y="0.5" width="179" height="55" rx="7.5" stroke="#A1A1AA"/>
<g clip-path="url(#clip0_2154_721)">
<path d="M14.817 12L30.8123 28L14.8186 44C14.5342 43.8804 14.2915 43.6794 14.121 43.4223C13.9505 43.1652 13.8598 42.8634 13.8604 42.5549V13.4467C13.8602 13.1383 13.9508 12.8366 14.121 12.5794C14.2911 12.3221 14.5332 12.1206 14.817 12ZM31.9229 29.1105L35.5388 32.7265L18.3591 42.6743L31.9229 29.1105ZM36.9478 24.0872L41.357 26.6413C41.595 26.7794 41.7926 26.9775 41.9299 27.216C42.0673 27.4545 42.1396 27.7248 42.1396 28C42.1396 28.2752 42.0673 28.5455 41.9299 28.784C41.7926 29.0225 41.595 29.2206 41.357 29.3587L36.9462 31.9128L33.0334 28L36.9478 24.0872ZM18.3591 13.3257L35.5404 23.2719L31.9229 26.8895L18.3591 13.3257Z" fill="#F4F4F5"/>
</g>
<path d="M55.8523 21H52.7585V12.2727H55.8778C56.7557 12.2727 57.5114 12.4474 58.1449 12.7969C58.7784 13.1435 59.2656 13.642 59.6065 14.2926C59.9503 14.9432 60.1222 15.7216 60.1222 16.6278C60.1222 17.5369 59.9503 18.3182 59.6065 18.9716C59.2656 19.625 58.7756 20.1264 58.1364 20.4759C57.5 20.8253 56.7386 21 55.8523 21ZM54.6037 19.419H55.7756C56.321 19.419 56.7798 19.3224 57.152 19.1293C57.527 18.9332 57.8082 18.6307 57.9957 18.2216C58.1861 17.8097 58.2812 17.2784 58.2812 16.6278C58.2812 15.983 58.1861 15.456 57.9957 15.0469C57.8082 14.6378 57.5284 14.3366 57.1562 14.1435C56.7841 13.9503 56.3253 13.8537 55.7798 13.8537H54.6037V19.419ZM61.4549 21V14.4545H63.2702V21H61.4549ZM62.3668 13.6108C62.0969 13.6108 61.8654 13.5213 61.6722 13.3423C61.4819 13.1605 61.3867 12.9432 61.3867 12.6903C61.3867 12.4403 61.4819 12.2259 61.6722 12.0469C61.8654 11.8651 62.0969 11.7741 62.3668 11.7741C62.6367 11.7741 62.8668 11.8651 63.0572 12.0469C63.2504 12.2259 63.3469 12.4403 63.3469 12.6903C63.3469 12.9432 63.2504 13.1605 63.0572 13.3423C62.8668 13.5213 62.6367 13.6108 62.3668 13.6108ZM70.1705 16.321L68.5085 16.4233C68.4801 16.2812 68.419 16.1534 68.3253 16.0398C68.2315 15.9233 68.108 15.831 67.9545 15.7628C67.804 15.6918 67.6236 15.6562 67.4134 15.6562C67.1321 15.6562 66.8949 15.7159 66.7017 15.8352C66.5085 15.9517 66.4119 16.108 66.4119 16.304C66.4119 16.4602 66.4744 16.5923 66.5994 16.7003C66.7244 16.8082 66.9389 16.8949 67.2429 16.9602L68.4276 17.1989C69.0639 17.3295 69.5384 17.5398 69.8509 17.8295C70.1634 18.1193 70.3196 18.5 70.3196 18.9716C70.3196 19.4006 70.1932 19.777 69.9403 20.1009C69.6903 20.4247 69.3466 20.6776 68.9091 20.8594C68.4744 21.0384 67.973 21.1278 67.4048 21.1278C66.5384 21.1278 65.848 20.9474 65.3338 20.5866C64.8224 20.223 64.5227 19.7287 64.4347 19.1037L66.2202 19.0099C66.2741 19.2741 66.4048 19.4759 66.6122 19.6151C66.8196 19.7514 67.0852 19.8196 67.4091 19.8196C67.7273 19.8196 67.983 19.7585 68.1761 19.6364C68.3722 19.5114 68.4716 19.3509 68.4744 19.1548C68.4716 18.9901 68.402 18.8551 68.2656 18.75C68.1293 18.642 67.919 18.5597 67.6349 18.5028L66.5014 18.277C65.8622 18.1491 65.3864 17.9276 65.0739 17.6122C64.7642 17.2969 64.6094 16.8949 64.6094 16.4062C64.6094 15.9858 64.723 15.6236 64.9503 15.3196C65.1804 15.0156 65.5028 14.7812 65.9176 14.6165C66.3352 14.4517 66.8239 14.3693 67.3835 14.3693C68.2102 14.3693 68.8608 14.544 69.3352 14.8935C69.8125 15.2429 70.0909 15.7187 70.1705 16.321ZM71.4627 23.4545V14.4545H73.2525V15.554H73.3335C73.413 15.3778 73.5281 15.1989 73.6786 15.017C73.832 14.8324 74.0309 14.679 74.2752 14.5568C74.5224 14.4318 74.8292 14.3693 75.1957 14.3693C75.6729 14.3693 76.1133 14.4943 76.5167 14.7443C76.9201 14.9915 77.2425 15.3651 77.484 15.8651C77.7255 16.3622 77.8462 16.9858 77.8462 17.7358C77.8462 18.4659 77.7283 19.0824 77.4925 19.5852C77.2596 20.0852 76.9414 20.4645 76.538 20.723C76.1374 20.9787 75.6886 21.1065 75.1914 21.1065C74.8391 21.1065 74.5394 21.0483 74.2923 20.9318C74.0479 20.8153 73.8477 20.669 73.6914 20.4929C73.5352 20.3139 73.4158 20.1335 73.3335 19.9517H73.2781V23.4545H71.4627ZM73.2397 17.7273C73.2397 18.1165 73.2937 18.456 73.4016 18.7457C73.5096 19.0355 73.6658 19.2614 73.8704 19.4233C74.0749 19.5824 74.3235 19.6619 74.6161 19.6619C74.9116 19.6619 75.1616 19.581 75.3661 19.419C75.5707 19.2543 75.7255 19.027 75.8306 18.7372C75.9386 18.4446 75.9925 18.108 75.9925 17.7273C75.9925 17.3494 75.94 17.017 75.8349 16.7301C75.7298 16.4432 75.5749 16.2187 75.3704 16.0568C75.1658 15.8949 74.9144 15.8139 74.6161 15.8139C74.3207 15.8139 74.0707 15.892 73.8661 16.0483C73.6644 16.2045 73.5096 16.4261 73.4016 16.7131C73.2937 17 73.2397 17.3381 73.2397 17.7273ZM82.0138 21.1278C81.3519 21.1278 80.7795 20.9872 80.2965 20.706C79.8164 20.4219 79.4457 20.027 79.1843 19.5213C78.9229 19.0128 78.7923 18.4233 78.7923 17.7528C78.7923 17.0767 78.9229 16.4858 79.1843 15.9801C79.4457 15.4716 79.8164 15.0767 80.2965 14.7955C80.7795 14.5114 81.3519 14.3693 82.0138 14.3693C82.6758 14.3693 83.2468 14.5114 83.7269 14.7955C84.2099 15.0767 84.582 15.4716 84.8434 15.9801C85.1048 16.4858 85.2354 17.0767 85.2354 17.7528C85.2354 18.4233 85.1048 19.0128 84.8434 19.5213C84.582 20.027 84.2099 20.4219 83.7269 20.706C83.2468 20.9872 82.6758 21.1278 82.0138 21.1278ZM82.0224 19.7216C82.3235 19.7216 82.5749 19.6364 82.7766 19.4659C82.9783 19.2926 83.1303 19.0568 83.2326 18.7585C83.3377 18.4602 83.3903 18.1207 83.3903 17.7401C83.3903 17.3594 83.3377 17.0199 83.2326 16.7216C83.1303 16.4233 82.9783 16.1875 82.7766 16.0142C82.5749 15.8409 82.3235 15.7543 82.0224 15.7543C81.7184 15.7543 81.4627 15.8409 81.2553 16.0142C81.0508 16.1875 80.896 16.4233 80.7908 16.7216C80.6886 17.0199 80.6374 17.3594 80.6374 17.7401C80.6374 18.1207 80.6886 18.4602 80.7908 18.7585C80.896 19.0568 81.0508 19.2926 81.2553 19.4659C81.4627 19.6364 81.7184 19.7216 82.0224 19.7216ZM88.2312 17.2159V21H86.4158V14.4545H88.146V15.6094H88.2227C88.3675 15.2287 88.6104 14.9276 88.9513 14.706C89.2923 14.4815 89.7056 14.3693 90.1914 14.3693C90.646 14.3693 91.0423 14.4688 91.3803 14.6676C91.7184 14.8665 91.9812 15.1506 92.1687 15.5199C92.3562 15.8864 92.4499 16.3239 92.4499 16.8324V21H90.6346V17.1562C90.6374 16.7557 90.5352 16.4432 90.3278 16.2188C90.1204 15.9915 89.8349 15.8778 89.4712 15.8778C89.2269 15.8778 89.011 15.9304 88.8235 16.0355C88.6388 16.1406 88.494 16.294 88.3888 16.4957C88.2866 16.6946 88.234 16.9347 88.2312 17.2159ZM93.8807 21V14.4545H95.696V21H93.8807ZM94.1406 13.6108L95.044 11.6719H96.723L95.4233 13.6108H94.1406ZM103.252 14.4545L100.964 21H98.9187L96.6303 14.4545H98.5479L99.9073 19.1378H99.9755L101.331 14.4545H103.252ZM106.953 21.1278C106.28 21.1278 105.701 20.9915 105.215 20.7188C104.732 20.4432 104.36 20.054 104.098 19.5511C103.837 19.0455 103.706 18.4474 103.706 17.7571C103.706 17.0838 103.837 16.4929 104.098 15.9844C104.36 15.4759 104.728 15.0795 105.202 14.7955C105.679 14.5114 106.239 14.3693 106.881 14.3693C107.313 14.3693 107.715 14.4389 108.087 14.5781C108.462 14.7145 108.789 14.9205 109.067 15.196C109.348 15.4716 109.567 15.8182 109.723 16.2358C109.88 16.6506 109.958 17.1364 109.958 17.6932V18.1918H104.431V17.0668H108.249C108.249 16.8054 108.192 16.5739 108.078 16.3722C107.965 16.1705 107.807 16.0128 107.605 15.8991C107.407 15.7827 107.175 15.7244 106.911 15.7244C106.635 15.7244 106.391 15.7884 106.178 15.9162C105.968 16.0412 105.803 16.2102 105.684 16.4233C105.564 16.6335 105.503 16.8679 105.5 17.1264V18.196C105.5 18.5199 105.56 18.7997 105.679 19.0355C105.801 19.2713 105.973 19.4531 106.195 19.581C106.417 19.7088 106.679 19.7727 106.983 19.7727C107.185 19.7727 107.37 19.7443 107.537 19.6875C107.705 19.6307 107.848 19.5455 107.968 19.4318C108.087 19.3182 108.178 19.179 108.24 19.0142L109.919 19.125C109.834 19.5284 109.659 19.8807 109.395 20.1818C109.134 20.4801 108.796 20.7131 108.381 20.8807C107.969 21.0455 107.493 21.1278 106.953 21.1278ZM112.958 12.2727V21H111.142V12.2727H112.958ZM119.005 17.2159V21H117.189V14.4545H118.919V15.6094H118.996C119.141 15.2287 119.384 14.9276 119.725 14.706C120.066 14.4815 120.479 14.3693 120.965 14.3693C121.419 14.3693 121.816 14.4688 122.154 14.6676C122.492 14.8665 122.755 15.1506 122.942 15.5199C123.13 15.8864 123.223 16.3239 123.223 16.8324V21H121.408V17.1562C121.411 16.7557 121.309 16.4432 121.101 16.2188C120.894 15.9915 120.608 15.8778 120.245 15.8778C120 15.8778 119.784 15.9304 119.597 16.0355C119.412 16.1406 119.267 16.294 119.162 16.4957C119.06 16.6946 119.007 16.9347 119.005 17.2159ZM127.612 21.1278C126.95 21.1278 126.377 20.9872 125.894 20.706C125.414 20.4219 125.043 20.027 124.782 19.5213C124.521 19.0128 124.39 18.4233 124.39 17.7528C124.39 17.0767 124.521 16.4858 124.782 15.9801C125.043 15.4716 125.414 15.0767 125.894 14.7955C126.377 14.5114 126.95 14.3693 127.612 14.3693C128.273 14.3693 128.844 14.5114 129.325 14.7955C129.808 15.0767 130.18 15.4716 130.441 15.9801C130.702 16.4858 130.833 17.0767 130.833 17.7528C130.833 18.4233 130.702 19.0128 130.441 19.5213C130.18 20.027 129.808 20.4219 129.325 20.706C128.844 20.9872 128.273 21.1278 127.612 21.1278ZM127.62 19.7216C127.921 19.7216 128.173 19.6364 128.374 19.4659C128.576 19.2926 128.728 19.0568 128.83 18.7585C128.935 18.4602 128.988 18.1207 128.988 17.7401C128.988 17.3594 128.935 17.0199 128.83 16.7216C128.728 16.4233 128.576 16.1875 128.374 16.0142C128.173 15.8409 127.921 15.7543 127.62 15.7543C127.316 15.7543 127.06 15.8409 126.853 16.0142C126.648 16.1875 126.494 16.4233 126.388 16.7216C126.286 17.0199 126.235 17.3594 126.235 17.7401C126.235 18.1207 126.286 18.4602 126.388 18.7585C126.494 19.0568 126.648 19.2926 126.853 19.4659C127.06 19.6364 127.316 19.7216 127.62 19.7216Z" fill="#A1A1AA"/>
<path d="M62.9091 32.1562C62.8097 31.8106 62.67 31.5052 62.4901 31.2401C62.3101 30.9702 62.09 30.7429 61.8295 30.5582C61.5739 30.3688 61.2803 30.2244 60.9489 30.125C60.6222 30.0256 60.2599 29.9759 59.8622 29.9759C59.1188 29.9759 58.4654 30.1605 57.902 30.5298C57.3433 30.8991 56.9077 31.4366 56.5952 32.142C56.2827 32.8428 56.1264 33.6998 56.1264 34.7131C56.1264 35.7263 56.2803 36.5881 56.5881 37.2983C56.8958 38.0085 57.3314 38.5507 57.8949 38.9247C58.4583 39.294 59.1236 39.4787 59.8906 39.4787C60.5866 39.4787 61.1809 39.3556 61.6733 39.1094C62.1705 38.8584 62.5492 38.5057 62.8097 38.0511C63.0748 37.5966 63.2074 37.0592 63.2074 36.4389L63.8324 36.5312H60.0824V34.2159H66.169V36.0483C66.169 37.3267 65.8991 38.4252 65.3594 39.3438C64.8196 40.2576 64.0762 40.9631 63.1293 41.4602C62.1823 41.9527 61.098 42.1989 59.8764 42.1989C58.5128 42.1989 57.3149 41.8982 56.2827 41.2969C55.2505 40.6908 54.4455 39.8314 53.8679 38.7188C53.295 37.6013 53.0085 36.2756 53.0085 34.7415C53.0085 33.5625 53.179 32.5114 53.5199 31.5881C53.8655 30.66 54.3485 29.8741 54.9688 29.2301C55.589 28.5862 56.3111 28.0961 57.1349 27.7599C57.9588 27.4238 58.8513 27.2557 59.8125 27.2557C60.6364 27.2557 61.4034 27.3764 62.1136 27.6179C62.8239 27.8546 63.4536 28.1908 64.0028 28.6264C64.5568 29.062 65.009 29.5805 65.3594 30.1818C65.7098 30.7784 65.9347 31.4366 66.0341 32.1562H62.9091ZM73.3512 42.2131C72.248 42.2131 71.2939 41.9787 70.489 41.5099C69.6888 41.0365 69.0709 40.3783 68.6353 39.5355C68.1997 38.688 67.9819 37.7055 67.9819 36.5881C67.9819 35.4612 68.1997 34.4763 68.6353 33.6335C69.0709 32.786 69.6888 32.1278 70.489 31.6591C71.2939 31.1856 72.248 30.9489 73.3512 30.9489C74.4544 30.9489 75.4061 31.1856 76.2063 31.6591C77.0112 32.1278 77.6315 32.786 78.0671 33.6335C78.5027 34.4763 78.7205 35.4612 78.7205 36.5881C78.7205 37.7055 78.5027 38.688 78.0671 39.5355C77.6315 40.3783 77.0112 41.0365 76.2063 41.5099C75.4061 41.9787 74.4544 42.2131 73.3512 42.2131ZM73.3654 39.8693C73.8673 39.8693 74.2863 39.7273 74.6225 39.4432C74.9587 39.1544 75.212 38.7614 75.3825 38.2642C75.5576 37.767 75.6452 37.2012 75.6452 36.5668C75.6452 35.9323 75.5576 35.3665 75.3825 34.8693C75.212 34.3722 74.9587 33.9792 74.6225 33.6903C74.2863 33.4015 73.8673 33.2571 73.3654 33.2571C72.8588 33.2571 72.4326 33.4015 72.087 33.6903C71.7461 33.9792 71.488 34.3722 71.3129 34.8693C71.1424 35.3665 71.0572 35.9323 71.0572 36.5668C71.0572 37.2012 71.1424 37.767 71.3129 38.2642C71.488 38.7614 71.7461 39.1544 72.087 39.4432C72.4326 39.7273 72.8588 39.8693 73.3654 39.8693ZM85.6168 42.2131C84.5136 42.2131 83.5595 41.9787 82.7546 41.5099C81.9544 41.0365 81.3365 40.3783 80.9009 39.5355C80.4653 38.688 80.2475 37.7055 80.2475 36.5881C80.2475 35.4612 80.4653 34.4763 80.9009 33.6335C81.3365 32.786 81.9544 32.1278 82.7546 31.6591C83.5595 31.1856 84.5136 30.9489 85.6168 30.9489C86.7201 30.9489 87.6718 31.1856 88.4719 31.6591C89.2769 32.1278 89.8971 32.786 90.3327 33.6335C90.7683 34.4763 90.9862 35.4612 90.9862 36.5881C90.9862 37.7055 90.7683 38.688 90.3327 39.5355C89.8971 40.3783 89.2769 41.0365 88.4719 41.5099C87.6718 41.9787 86.7201 42.2131 85.6168 42.2131ZM85.631 39.8693C86.1329 39.8693 86.552 39.7273 86.8881 39.4432C87.2243 39.1544 87.4776 38.7614 87.6481 38.2642C87.8233 37.767 87.9109 37.2012 87.9109 36.5668C87.9109 35.9323 87.8233 35.3665 87.6481 34.8693C87.4776 34.3722 87.2243 33.9792 86.8881 33.6903C86.552 33.4015 86.1329 33.2571 85.631 33.2571C85.1244 33.2571 84.6983 33.4015 84.3526 33.6903C84.0117 33.9792 83.7537 34.3722 83.5785 34.8693C83.408 35.3665 83.3228 35.9323 83.3228 36.5668C83.3228 37.2012 83.408 37.767 83.5785 38.2642C83.7537 38.7614 84.0117 39.1544 84.3526 39.4432C84.6983 39.7273 85.1244 39.8693 85.631 39.8693ZM97.8683 46.3182C96.8881 46.3182 96.0477 46.1832 95.3469 45.9134C94.6509 45.6482 94.0969 45.286 93.685 44.8267C93.2731 44.3674 93.0056 43.8513 92.8825 43.2784L95.6808 42.902C95.766 43.1198 95.9009 43.3234 96.0856 43.5128C96.2702 43.7022 96.5141 43.8537 96.8171 43.9673C97.1249 44.0857 97.4989 44.1449 97.9393 44.1449C98.5974 44.1449 99.1396 43.9839 99.5657 43.6619C99.9966 43.3447 100.212 42.812 100.212 42.0639V40.0682H100.084C99.9516 40.3712 99.7527 40.6577 99.4876 40.9276C99.2224 41.1974 98.8815 41.4176 98.4648 41.5881C98.0482 41.7585 97.551 41.8438 96.9734 41.8438C96.1542 41.8438 95.4085 41.6544 94.7362 41.2756C94.0685 40.892 93.5359 40.3073 93.1381 39.5213C92.7451 38.7306 92.5487 37.7315 92.5487 36.5241C92.5487 35.2884 92.7499 34.2562 93.1523 33.4276C93.5548 32.599 94.0898 31.9787 94.7575 31.5668C95.4298 31.1548 96.1661 30.9489 96.9663 30.9489C97.5771 30.9489 98.0884 31.053 98.5004 31.2614C98.9123 31.465 99.2437 31.7206 99.4947 32.0284C99.7504 32.3314 99.9469 32.6297 100.084 32.9233H100.198V31.0909H103.202V42.1065C103.202 43.0346 102.975 43.8111 102.52 44.4361C102.066 45.0611 101.436 45.5298 100.631 45.8423C99.8308 46.1596 98.9099 46.3182 97.8683 46.3182ZM97.9322 39.571C98.4199 39.571 98.8318 39.4503 99.168 39.2088C99.5089 38.9626 99.7693 38.6122 99.9492 38.1577C100.134 37.6984 100.226 37.1491 100.226 36.5099C100.226 35.8707 100.136 35.3168 99.9563 34.848C99.7764 34.3745 99.516 34.0076 99.1751 33.7472C98.8342 33.4867 98.4199 33.3565 97.9322 33.3565C97.435 33.3565 97.016 33.4915 96.6751 33.7614C96.3342 34.0265 96.0761 34.3958 95.9009 34.8693C95.7257 35.3428 95.6381 35.8897 95.6381 36.5099C95.6381 37.1397 95.7257 37.6842 95.9009 38.1435C96.0808 38.598 96.3389 38.9508 96.6751 39.2017C97.016 39.4479 97.435 39.571 97.9322 39.571ZM108.635 27.4545V42H105.61V27.4545H108.635ZM116.031 42.2131C114.908 42.2131 113.942 41.9858 113.133 41.5312C112.328 41.072 111.708 40.4233 111.272 39.5852C110.836 38.7424 110.619 37.7457 110.619 36.5952C110.619 35.473 110.836 34.4882 111.272 33.6406C111.708 32.7931 112.321 32.1326 113.112 31.6591C113.907 31.1856 114.84 30.9489 115.91 30.9489C116.629 30.9489 117.299 31.0649 117.92 31.2969C118.545 31.5241 119.089 31.8674 119.553 32.3267C120.022 32.786 120.387 33.3636 120.647 34.0597C120.907 34.7509 121.038 35.5606 121.038 36.4886V37.3196H111.826V35.4446H118.19C118.19 35.009 118.095 34.6231 117.906 34.2869C117.716 33.9508 117.453 33.688 117.117 33.4986C116.786 33.3045 116.4 33.2074 115.96 33.2074C115.5 33.2074 115.093 33.3139 114.738 33.527C114.388 33.7353 114.113 34.017 113.914 34.3722C113.715 34.7225 113.613 35.1132 113.609 35.544V37.3267C113.609 37.8665 113.708 38.3329 113.907 38.7259C114.111 39.1188 114.397 39.4219 114.766 39.6349C115.136 39.848 115.574 39.9545 116.08 39.9545C116.416 39.9545 116.724 39.9072 117.004 39.8125C117.283 39.7178 117.522 39.5758 117.721 39.3864C117.92 39.197 118.071 38.965 118.175 38.6903L120.974 38.875C120.832 39.5473 120.54 40.1345 120.1 40.6364C119.665 41.1335 119.101 41.5218 118.41 41.8011C117.723 42.0758 116.93 42.2131 116.031 42.2131ZM127.698 42V27.4545H133.436C134.54 27.4545 135.48 27.6652 136.256 28.0866C137.033 28.5033 137.624 29.0833 138.032 29.8267C138.444 30.5653 138.65 31.4176 138.65 32.3835C138.65 33.3494 138.441 34.2017 138.025 34.9403C137.608 35.679 137.004 36.2543 136.213 36.6662C135.427 37.0781 134.476 37.2841 133.358 37.2841H129.701V34.8196H132.861C133.453 34.8196 133.941 34.7178 134.324 34.5142C134.712 34.3059 135.001 34.0194 135.191 33.6548C135.385 33.2855 135.482 32.8617 135.482 32.3835C135.482 31.9006 135.385 31.4792 135.191 31.1193C135.001 30.7547 134.712 30.473 134.324 30.2741C133.936 30.0705 133.444 29.9688 132.847 29.9688H130.773V42H127.698ZM143.616 27.4545V42H140.59V27.4545H143.616ZM149.15 42.206C148.454 42.206 147.834 42.0852 147.289 41.8438C146.745 41.5975 146.314 41.2353 145.997 40.7571C145.684 40.2741 145.528 39.6728 145.528 38.9531C145.528 38.3471 145.639 37.8381 145.862 37.4261C146.084 37.0142 146.387 36.6828 146.771 36.4318C147.154 36.1809 147.59 35.9915 148.078 35.8636C148.57 35.7358 149.086 35.6458 149.626 35.5938C150.261 35.5275 150.772 35.4659 151.16 35.4091C151.548 35.3475 151.83 35.2576 152.005 35.1392C152.181 35.0208 152.268 34.8456 152.268 34.6136V34.571C152.268 34.1212 152.126 33.7732 151.842 33.527C151.563 33.2808 151.165 33.1577 150.649 33.1577C150.104 33.1577 149.671 33.2784 149.349 33.5199C149.027 33.7566 148.814 34.0549 148.71 34.4148L145.912 34.1875C146.054 33.5246 146.333 32.9517 146.75 32.4688C147.166 31.9811 147.704 31.607 148.362 31.3466C149.025 31.0814 149.792 30.9489 150.663 30.9489C151.269 30.9489 151.849 31.0199 152.403 31.1619C152.962 31.304 153.457 31.5241 153.887 31.8224C154.323 32.1207 154.666 32.5043 154.917 32.973C155.168 33.437 155.294 33.9934 155.294 34.642V42H152.424V40.4872H152.339C152.164 40.8281 151.93 41.1288 151.636 41.3892C151.342 41.6449 150.99 41.8461 150.578 41.9929C150.166 42.1349 149.69 42.206 149.15 42.206ZM150.017 40.1179C150.462 40.1179 150.855 40.0303 151.196 39.8551C151.537 39.6752 151.804 39.4337 151.998 39.1307C152.192 38.8277 152.289 38.4844 152.289 38.1009V36.9432C152.195 37.0047 152.065 37.0616 151.899 37.1136C151.738 37.161 151.556 37.206 151.352 37.2486C151.148 37.2865 150.945 37.322 150.741 37.3551C150.538 37.3835 150.353 37.4096 150.187 37.4332C149.832 37.4853 149.522 37.5682 149.257 37.6818C148.992 37.7955 148.786 37.9493 148.639 38.1435C148.492 38.3329 148.419 38.5696 148.419 38.8537C148.419 39.2656 148.568 39.5805 148.866 39.7983C149.169 40.0114 149.553 40.1179 150.017 40.1179ZM159.118 46.0909C158.735 46.0909 158.375 46.0601 158.039 45.9986C157.707 45.9418 157.433 45.8684 157.215 45.7784L157.897 43.5199C158.252 43.6288 158.571 43.688 158.855 43.6974C159.144 43.7069 159.393 43.6406 159.601 43.4986C159.814 43.3565 159.987 43.1151 160.12 42.7741L160.297 42.3125L156.384 31.0909H159.566L161.824 39.1023H161.938L164.218 31.0909H167.421L163.181 43.179C162.977 43.7661 162.7 44.2775 162.35 44.7131C162.004 45.1534 161.566 45.492 161.036 45.7287C160.506 45.9702 159.866 46.0909 159.118 46.0909Z" fill="#F4F4F5"/>
<defs>
<clipPath id="clip0_2154_721">
<rect width="32" height="32" fill="white" transform="translate(12 12)"/>
</clipPath>
</defs>
</svg>
